<?xml version="1.0" encoding="utf-8"?>
<!-- Svg Vector Icons : http://www.onlinewebfonts.com/icon -->
<!DOCTYPE svg PUBLIC "-//W3C//DTD SVG 1.1//EN" "http://www.w3.org/Graphics/SVG/1.1/DTD/svg11.dtd">
<svg version="1.1" xmlns="http://www.w3.org/2000/svg" xmlns:xlink="http://www.w3.org/1999/xlink" x="0px" y="0px" viewBox="0 0 256 256" enable-background="new 0 0 256 256" xml:space="preserve">
<metadata> Svg Vector Icons : http://www.onlinewebfonts.com/icon </metadata>
<g><g><path fill="#000000" d="M107.1,146.7c-1.8-1.8-4.5-1.9-6-0.3l-8.2,8.2l-8.2-8.2c-1.6-1.6-4.3-1.4-6,0.3c-1.8,1.8-1.9,4.5-0.3,6l8.2,8.2l-8.2,8.2c-1.6,1.6-1.4,4.3,0.3,6c1.8,1.8,4.5,1.9,6,0.3l8.2-8.2l8.2,8.2c1.6,1.6,4.3,1.4,6-0.3c1.8-1.8,1.9-4.5,0.3-6l-8.2-8.2l8.2-8.2C109,151.2,108.9,148.5,107.1,146.7z"/><path fill="#000000" d="M178.4,164.5h-32.3c-2.2,0-4,2.9-4,5.4s1.8,5.4,4,5.4h32.3c2.2,0,4-2.9,4-5.4C182.4,167.3,180.6,164.5,178.4,164.5z"/><path fill="#000000" d="M178.4,149.5h-32.3c-2.2,0-4,1.8-4,4.3s1.8,4.3,4,4.3h32.3c2.2,0,4-1.8,4-4.3C182.4,151.3,180.6,149.5,178.4,149.5z"/><path fill="#000000" d="M109,89.4H76.7c-2.2,0-4,1.8-4,4.3s1.8,4.3,4,4.3H109c2.2,0,4-1.8,4-4.3C113,91.2,111.2,89.4,109,89.4z"/><path fill="#000000" d="M178.4,89.4h-11.8V77.6c0-2.2-1.8-4-4.3-4s-4.3,1.8-4.3,4v11.7h-11.9c-2.2,0-4,1.8-4,4.3s1.8,4.3,4,4.3h11.9v11.9c0,2.2,1.8,4,4.3,4s4.3-1.8,4.3-4V97.9h11.8c2.2,0,4-1.8,4-4.3C182.4,91.2,180.6,89.4,178.4,89.4z"/><path fill="#000000" d="M128,10C62.8,10,10,62.8,10,128c0,65.2,52.8,118,118,118c65.2,0,118-52.8,118-118C246,62.8,193.2,10,128,10z M123.7,183.4c0,4.9-4,9-9,9H70.4c-4.9,0-9-4-9-9v-42.2c0-4.9,4-9,9-9h44.3c4.9,0,9,4,9,9V183.4z M123.7,114.8c0,4.9-4,9-9,9H70.4c-4.9,0-9-4-9-9V72.6c0-4.9,4-9,9-9h44.3c4.9,0,9,4,9,9V114.8z M192.4,183.4c0,4.9-4,9-9,9h-44.3c-5,0-9-4-9-9v-42.2c0-4.9,4-9,9-9h44.3c4.9,0,9,4,9,9L192.4,183.4L192.4,183.4z M192.4,114.8c0,4.9-4,9-9,9h-44.3c-5,0-9-4-9-9V72.6c0-4.9,4-9,9-9h44.3c4.9,0,9,4,9,9L192.4,114.8L192.4,114.8z"/></g></g>
</svg>